<?xml version="1.0" encoding="utf-8"?>
<!-- Generator: Adobe Illustrator 27.3.1, SVG Export Plug-In . SVG Version: 6.00 Build 0)  -->
<svg version="1.1" id="Layer_1" xmlns="http://www.w3.org/2000/svg" xmlns:xlink="http://www.w3.org/1999/xlink" x="0px" y="0px"
	 viewBox="0 0 1080 341.33" style="enable-background:new 0 0 1080 341.33;" xml:space="preserve">
<style type="text/css">
	.st0{fill:#FFFFFF;}
	.st1{fill:#333333;}
	.st2{fill:#0074AF;}
	.st3{fill:#106DB5;}
	.st4{fill:url(#SVGID_1_);}
	.st5{fill:url(#SVGID_00000034802374665566696160000007441536832787823749_);}
	.st6{fill:url(#SVGID_00000029032904111084836240000004955661512137834166_);}
	.st7{fill:url(#SVGID_00000039108122144285435680000000032706240895339670_);}
	.st8{fill:url(#SVGID_00000020365939298608586860000006908310192058640825_);}
	.st9{fill:url(#SVGID_00000162354180171728703100000003437003889036226979_);}
	.st10{fill:url(#SVGID_00000148638081215585306720000015955561605555885699_);}
	.st11{fill:url(#SVGID_00000035490592527395784090000003791047330275720071_);}
	.st12{fill:url(#SVGID_00000151506483673047573900000014241728009158663336_);}
</style>
<g>
	<circle class="st0" cx="128.71" cy="148.31" r="46.71"/>
	<circle class="st0" cx="244.33" cy="148.31" r="46.71"/>
	<g>
		<g>
			<path class="st1" d="M414.85,136.04h33.25c1.73,0,3.13,1.4,3.13,3.13v8.39c0,1.73-1.4,3.13-3.13,3.13h-47.44
				c-1.73,0-3.13-1.4-3.13-3.13V60.63c0-1.73,1.4-3.13,3.13-3.13h9.18c1.73,0,3.13,1.4,3.13,3.13v73.52
				C412.97,135.2,413.81,136.04,414.85,136.04z"/>
			<path class="st1" d="M499.36,57.5h9.19c1.73,0,3.13,1.4,3.13,3.13v86.92c0,1.73-1.4,3.13-3.13,3.13h-9.19
				c-1.73,0-3.13-1.4-3.13-3.13V60.63C496.24,58.9,497.64,57.5,499.36,57.5z"/>
			<path class="st1" d="M626.45,57.5h9.18c1.73,0,3.13,1.4,3.13,3.13v86.92c0,1.73-1.4,3.13-3.13,3.13h-7.33
				c-1.02,0-1.98-0.5-2.56-1.33l-39.94-57c-1.06-1.51-3.43-0.76-3.43,1.08v54.12c0,1.73-1.4,3.13-3.13,3.13h-9.18
				c-1.73,0-3.13-1.4-3.13-3.13V60.63c0-1.73,1.4-3.13,3.13-3.13h7.02c1.02,0,1.98,0.5,2.56,1.33l40.24,57.43
				c1.06,1.51,3.43,0.76,3.43-1.08V60.63C623.32,58.9,624.72,57.5,626.45,57.5z"/>
			<path class="st1" d="M779.25,102.49c1.04,0,1.88,0.84,1.88,1.88v4.51c0,12.78-4.25,23.23-12.75,31.35
				c-8.5,8.12-19.6,12.18-33.29,12.18c-14.5,0-26.47-4.66-35.91-13.98c-9.44-9.32-14.16-20.77-14.16-34.34
				c0-13.49,4.72-24.91,14.16-34.28c9.44-9.36,21.14-14.04,35.1-14.04c8.77,0,16.78,2,24.03,5.99c6.18,3.41,11.19,7.81,15.03,13.22
				c1.07,1.51,0.6,3.62-1.01,4.54l-7.83,4.47c-1.4,0.8-3.16,0.38-4.1-0.93c-2.41-3.35-5.61-6.12-9.61-8.32
				c-4.92-2.71-10.43-4.06-16.51-4.06c-9.85,0-17.94,3.19-24.3,9.58c-6.36,6.39-9.53,14.38-9.53,23.96s3.2,17.53,9.6,23.83
				c6.4,6.3,14.79,9.45,25.17,9.45c8.32,0,15.1-1.93,20.34-5.79c4.56-3.36,7.67-7.71,9.35-13.06c0.38-1.21-0.54-2.45-1.81-2.45
				h-25.82c-1.73,0-3.13-1.4-3.13-3.13v-7.46c0-1.73,1.4-3.13,3.13-3.13H779.25z"/>
			<path class="st1" d="M905.99,138.37c-9.44,9.36-20.96,14.04-34.57,14.04c-13.61,0-25.13-4.68-34.57-14.04
				c-9.44-9.36-14.16-20.78-14.16-34.28c0-13.49,4.72-24.91,14.16-34.28c9.44-9.36,20.96-14.04,34.57-14.04
				c13.6,0,25.12,4.68,34.57,14.04c9.44,9.36,14.16,20.79,14.16,34.28C920.15,117.58,915.43,129.01,905.99,138.37z M847.73,127.98
				c6.4,6.35,14.3,9.52,23.69,9.52c9.4,0,17.29-3.17,23.69-9.52c6.4-6.34,9.6-14.31,9.6-23.89s-3.2-17.55-9.6-23.89
				c-6.4-6.34-14.3-9.52-23.69-9.52c-9.4,0-17.3,3.17-23.69,9.52c-6.4,6.34-9.6,14.31-9.6,23.89S841.33,121.64,847.73,127.98z"/>
		</g>
		<g>
			<g>
				<path class="st2" d="M507.23,289.32H490c-2.45,0-4.43-1.98-4.43-4.43v-55.01c0-1.96-2.58-2.69-3.6-1.01l-25.91,42.51h-2.93
					l-25.91-42.51c-1.02-1.68-3.6-0.95-3.6,1.01v55.01c0,2.45-1.98,4.43-4.43,4.43h-17.23c-2.45,0-4.43-1.98-4.43-4.43V179.62
					c0-2.45,1.98-4.43,4.43-4.43h19.17c1.54,0,2.97,0.8,3.78,2.12l28.02,45.87c0.76,1.24,2.56,1.24,3.31,0l28.02-45.87
					c0.8-1.32,2.24-2.12,3.78-2.12h19.17c2.45,0,4.43,1.98,4.43,4.43v105.26C511.65,287.33,509.67,289.32,507.23,289.32z"/>
			</g>
			<g>
				<path class="st3" d="M507.23,289.32H490c-2.45,0-4.43-1.98-4.43-4.43v-55.01c0-1.96-2.58-2.69-3.6-1.01l-25.91,42.51h-2.93
					l-25.91-42.51c-1.02-1.68-3.6-0.95-3.6,1.01v55.01c0,2.45-1.98,4.43-4.43,4.43h-17.23c-2.45,0-4.43-1.98-4.43-4.43V179.62
					c0-2.45,1.98-4.43,4.43-4.43h19.17c1.54,0,2.97,0.8,3.78,2.12l28.02,45.87c0.76,1.24,2.56,1.24,3.31,0l28.02-45.87
					c0.8-1.32,2.24-2.12,3.78-2.12h19.17c2.45,0,4.43,1.98,4.43,4.43v105.26C511.65,287.33,509.67,289.32,507.23,289.32z"/>
				<path class="st3" d="M605.41,268.64v16.25c0,2.45-1.98,4.43-4.43,4.43H538.1c-2.45,0-4.43-1.98-4.43-4.43V179.62
					c0-2.45,1.98-4.43,4.43-4.43h62.06c2.45,0,4.43,1.98,4.43,4.43v16.25c0,2.45-1.98,4.43-4.43,4.43h-37.24
					c-1.75,0-3.17,1.42-3.17,3.17v12.57c0,1.75,1.42,3.17,3.17,3.17h33.16c2.45,0,4.43,1.98,4.43,4.43v15.92
					c0,2.45-1.98,4.43-4.43,4.43h-33.16c-1.75,0-3.17,1.42-3.17,3.17v13.88c0,1.75,1.42,3.17,3.17,3.17h38.05
					C603.43,264.21,605.41,266.19,605.41,268.64z"/>
				<path class="st3" d="M712.21,179.62v105.26c0,2.45-1.98,4.43-4.43,4.43h-12.85c-1.43,0-2.78-0.69-3.61-1.86l-39.62-55.77
					c-0.95-1.34-3.07-0.67-3.07,0.98v52.22c0,2.45-1.98,4.43-4.43,4.43h-17.23c-2.45,0-4.43-1.98-4.43-4.43V179.62
					c0-2.45,1.98-4.43,4.43-4.43h12.85c1.43,0,2.78,0.69,3.61,1.86l39.63,55.77c0.95,1.34,3.07,0.67,3.07-0.98v-52.22
					c0-2.45,1.98-4.43,4.43-4.43h17.23C710.23,175.2,712.21,177.18,712.21,179.62z"/>
				<path class="st3" d="M806.43,200.3h-22.46c-1.36,0-2.46,1.1-2.46,2.46v82.13c0,2.45-1.98,4.43-4.43,4.43h-17.23
					c-2.45,0-4.43-1.98-4.43-4.43v-82.13c0-1.36-1.1-2.46-2.46-2.46h-22.46c-2.45,0-4.43-1.98-4.43-4.43v-16.25
					c0-2.45,1.98-4.43,4.43-4.43h75.92c2.45,0,4.43,1.98,4.43,4.43v16.25C810.86,198.32,808.87,200.3,806.43,200.3z"/>
				<path class="st3" d="M813.31,232.26c0-33.58,26.57-59.34,59.34-59.34c32.77,0,59.34,25.76,59.34,59.34
					c0,33.59-26.57,59.35-59.34,59.35C839.89,291.6,813.31,265.84,813.31,232.26z M905.91,232.26c0-20.38-14.67-33.91-33.26-33.91
					c-18.59,0-33.26,13.53-33.26,33.91c0,20.38,14.67,33.91,33.26,33.91C891.24,266.17,905.91,252.64,905.91,232.26z"/>
				<path class="st3" d="M986.53,251.82h-9.46c-1.02,0-1.86,0.83-1.86,1.86v31.21c0,2.45-1.98,4.43-4.43,4.43h-17.23
					c-2.45,0-4.43-1.98-4.43-4.43V179.62c0-2.45,1.98-4.43,4.43-4.43h41.22c21.68,0,39.13,17.44,39.13,39.13
					c0,13.39-7.72,25.58-19.35,32.19c-0.91,0.52-1.25,1.65-0.73,2.56l19.48,33.6c1.71,2.95-0.42,6.65-3.83,6.65h-17.79
					c-1.59,0-3.05-0.85-3.84-2.22l-19.71-34.34C987.81,252.18,987.2,251.82,986.53,251.82z M975.22,227.14
					c0,1.02,0.83,1.86,1.86,1.86h17.71c7.17,0,13.04-6.36,13.04-14.67c0-8.31-5.87-14.67-13.04-14.67h-17.71
					c-1.02,0-1.86,0.83-1.86,1.86V227.14z"/>
			</g>
		</g>
	</g>
	<g>
		<linearGradient id="SVGID_1_" gradientUnits="userSpaceOnUse" x1="111.7832" y1="132.1408" x2="146.1382" y2="166.4959">
			<stop  offset="0" style="stop-color:#28AAE1"/>
			<stop  offset="0.201" style="stop-color:#1A95D1"/>
			<stop  offset="0.453" style="stop-color:#0E83C2"/>
			<stop  offset="0.715" style="stop-color:#0678BA"/>
			<stop  offset="1" style="stop-color:#0474B7"/>
		</linearGradient>
		<path class="st4" d="M102.83,148.56c0,8.73,4.41,16.44,11.11,20.99c4.06,2.76,8.98,4.37,14.25,4.37c4.01,0,7.8-0.91,11.16-2.58
			c8.43-4.11,14.21-12.77,14.21-22.78c0-10.02-5.79-18.67-14.21-22.79c-3.36-1.66-7.15-2.58-11.16-2.58c-3.23,0-6.32,0.61-9.16,1.7
			c1.48,2.19,2.24,4.85,2.03,7.73c-0.41,5.27-4.32,9.78-9.49,10.91c-2.88,0.63-5.66,0.2-8.03-0.95
			C103.07,144.5,102.83,146.49,102.83,148.56z M137.32,133.12c2.19,0.49,3.96,2.24,4.44,4.43c0.98,4.35-2.82,8.17-7.17,7.19
			c-2.2-0.49-3.96-2.26-4.44-4.44C129.19,135.95,132.97,132.17,137.32,133.12z"/>
		
			<linearGradient id="SVGID_00000043432250921184050810000008895790180499309457_" gradientUnits="userSpaceOnUse" x1="228.5943" y1="132.1485" x2="262.9414" y2="166.4957">
			<stop  offset="0" style="stop-color:#28AAE1"/>
			<stop  offset="0.201" style="stop-color:#1A95D1"/>
			<stop  offset="0.453" style="stop-color:#0E83C2"/>
			<stop  offset="0.715" style="stop-color:#0678BA"/>
			<stop  offset="1" style="stop-color:#0474B7"/>
		</linearGradient>
		<path style="fill:url(#SVGID_00000043432250921184050810000008895790180499309457_);" d="M219.63,148.56
			c0,10.01,5.79,18.67,14.21,22.78c3.36,1.67,7.15,2.58,11.16,2.58c5.27,0,10.19-1.6,14.25-4.37c6.7-4.56,11.11-12.26,11.11-20.99
			c0-8.74-4.41-16.44-11.11-21.01c-4.06-2.75-8.98-4.37-14.25-4.37c-3.24,0-6.32,0.6-9.15,1.7c1.5,2.26,2.28,5.02,1.97,8.01
			c-0.55,5.56-5,10.13-10.54,10.82c-2.5,0.32-4.9-0.14-6.94-1.16C219.88,144.49,219.63,146.48,219.63,148.56z M253.59,133.12
			c2.19,0.49,3.96,2.24,4.44,4.43c0.98,4.35-2.82,8.17-7.17,7.19c-2.2-0.49-3.96-2.26-4.44-4.44
			C245.45,135.95,249.23,132.17,253.59,133.12z"/>
		<g>
			<g>
				
					<linearGradient id="SVGID_00000169515554950434154750000004667007161451396999_" gradientUnits="userSpaceOnUse" x1="-964.8337" y1="-161.5512" x2="-643.9899" y2="-161.5512" gradientTransform="matrix(1 0 0 1 990.4762 335.2381)">
					<stop  offset="0" style="stop-color:#28AAE1"/>
					<stop  offset="0.026" style="stop-color:#26A6DE"/>
					<stop  offset="0.2199" style="stop-color:#1790CD"/>
					<stop  offset="0.4312" style="stop-color:#0C80C1"/>
					<stop  offset="0.6709" style="stop-color:#0677B9"/>
					<stop  offset="1" style="stop-color:#0474B7"/>
				</linearGradient>
				<path style="fill:url(#SVGID_00000169515554950434154750000004667007161451396999_);" d="M186.56,211.15"/>
				
					<linearGradient id="SVGID_00000027581265184576147030000009221529683521526416_" gradientUnits="userSpaceOnUse" x1="-964.8337" y1="-161.5512" x2="-643.9899" y2="-161.5512" gradientTransform="matrix(1 0 0 1 990.4762 335.2381)">
					<stop  offset="0" style="stop-color:#28AAE1"/>
					<stop  offset="0.026" style="stop-color:#26A6DE"/>
					<stop  offset="0.2199" style="stop-color:#1790CD"/>
					<stop  offset="0.4312" style="stop-color:#0C80C1"/>
					<stop  offset="0.6709" style="stop-color:#0677B9"/>
					<stop  offset="1" style="stop-color:#0474B7"/>
				</linearGradient>
				<path style="fill:url(#SVGID_00000027581265184576147030000009221529683521526416_);" d="M179.84,321.02
					c-58.42-6.09-105.11-51.32-113.46-109.05c-0.14-0.94,0.99-1.54,1.68-0.88c10.35,9.91,23.18,17.24,37.47,20.98
					c1.25,0.33,2.25,1.23,2.68,2.44c13,36.4,38.77,66.7,71.93,85.54C180.62,320.34,180.39,321.08,179.84,321.02z"/>
				
					<linearGradient id="SVGID_00000107579220034993681200000014158792053502754729_" gradientUnits="userSpaceOnUse" x1="-964.8337" y1="-161.5512" x2="-643.9899" y2="-161.5512" gradientTransform="matrix(1 0 0 1 990.4762 335.2381)">
					<stop  offset="0" style="stop-color:#28AAE1"/>
					<stop  offset="0.026" style="stop-color:#26A6DE"/>
					<stop  offset="0.2199" style="stop-color:#1790CD"/>
					<stop  offset="0.4312" style="stop-color:#0C80C1"/>
					<stop  offset="0.6709" style="stop-color:#0677B9"/>
					<stop  offset="1" style="stop-color:#0474B7"/>
				</linearGradient>
				<path style="fill:url(#SVGID_00000107579220034993681200000014158792053502754729_);" d="M306.83,211.89
					c-8.31,57.76-55.02,103.04-113.47,109.14c-0.56,0.06-0.79-0.69-0.3-0.96c33.17-18.84,58.93-49.15,71.93-85.55
					c0.43-1.21,1.44-2.12,2.68-2.45c14.31-3.76,27.15-11.12,37.48-21.05C305.84,210.35,306.97,210.94,306.83,211.89z"/>
				
					<linearGradient id="SVGID_00000022544743835934844570000016124437954755992731_" gradientUnits="userSpaceOnUse" x1="-964.8337" y1="-161.5512" x2="-643.9899" y2="-161.5512" gradientTransform="matrix(1 0 0 1 990.4762 335.2381)">
					<stop  offset="0" style="stop-color:#28AAE1"/>
					<stop  offset="0.026" style="stop-color:#26A6DE"/>
					<stop  offset="0.2199" style="stop-color:#1790CD"/>
					<stop  offset="0.4312" style="stop-color:#0C80C1"/>
					<stop  offset="0.6709" style="stop-color:#0677B9"/>
					<stop  offset="1" style="stop-color:#0474B7"/>
				</linearGradient>
				<path style="fill:url(#SVGID_00000022544743835934844570000016124437954755992731_);" d="M287,101.55
					c-11.21-10.05-26.04-16.15-42.31-16.15c-2.04,0-4.07,0.1-6.07,0.29c-7.54,0.71-14.68,2.73-21.21,5.84
					c-6.45,3.07-12.31,7.21-17.33,12.18c-4.19,4.13-7.81,8.85-10.72,14.02c-1.21,2.15-4.34,2.15-5.55,0
					c-2.91-5.17-6.52-9.88-10.72-14.02c-5.02-4.97-10.88-9.12-17.33-12.18c-6.53-3.11-13.67-5.13-21.21-5.84
					c-2-0.19-4.03-0.29-6.07-0.29c-16.27,0-31.09,6.1-42.31,16.15c-12.98,11.61-21.15,28.49-21.15,47.3c0,3.56,0.29,7.05,0.86,10.45
					c4.98,30.1,31.08,53.01,62.6,53.01c2.04,0,4.07-0.1,6.07-0.29c6.79-0.64,13.26-2.35,19.25-4.94c0.65-0.29,1.32-0.6,1.96-0.9
					c5.81-2.76,11.14-6.4,15.81-10.73c0.81-0.75,2.08-0.57,2.69,0.35c3.22,4.84,6.95,9.34,11.08,13.4c0.69,0.67,1.8,0.67,2.49,0
					c4.14-4.06,7.86-8.56,11.08-13.4c0.61-0.91,1.88-1.09,2.69-0.35c4.67,4.33,10,7.96,15.81,10.73c0.64,0.3,1.31,0.61,1.96,0.9
					c5.99,2.59,12.45,4.3,19.25,4.94c2,0.19,4.03,0.29,6.07,0.29c31.52,0,57.63-22.91,62.6-53.01c0.56-3.4,0.86-6.88,0.86-10.45
					C308.16,130.03,299.99,113.16,287,101.55z M163.48,172.67c-4.32,6.33-10.31,11.43-17.34,14.65c-2.11,0.96-4.3,1.76-6.58,2.37
					c-3.52,0.96-7.23,1.47-11.07,1.47c-1.2,0-2.38-0.05-3.55-0.15c-17.31-1.44-31.63-13.27-36.74-29.24
					c-1.31-4.07-2.01-8.42-2.01-12.92c0-22.19,17.03-40.35,38.75-42.16c1.17-0.1,2.36-0.15,3.55-0.15c6.31,0,12.27,1.38,17.64,3.84
					c7.03,3.23,13.02,8.33,17.34,14.65c4.63,6.78,7.32,14.97,7.32,23.81C170.8,157.7,168.11,165.89,163.48,172.67z M284.99,161.77
					c-5.11,15.97-19.44,27.8-36.74,29.24c-1.17,0.1-2.36,0.15-3.55,0.15c-3.84,0-7.55-0.51-11.07-1.47
					c-2.28-0.61-4.47-1.41-6.58-2.37c-7.03-3.23-13.02-8.33-17.34-14.65c0,0,0,0,0-0.01c-4.63-6.77-7.32-14.97-7.32-23.8
					s2.7-17.03,7.32-23.8c0-0.01,0-0.01,0-0.01c4.32-6.33,10.31-11.43,17.34-14.65c5.37-2.46,11.34-3.84,17.64-3.84
					c1.2,0,2.38,0.05,3.55,0.15c21.72,1.81,38.75,19.97,38.75,42.16C287,153.35,286.3,157.7,284.99,161.77z"/>
				
					<linearGradient id="SVGID_00000068671509219999086710000001887990611170829703_" gradientUnits="userSpaceOnUse" x1="-964.8337" y1="-161.5512" x2="-643.9899" y2="-161.5512" gradientTransform="matrix(1 0 0 1 990.4762 335.2381)">
					<stop  offset="0" style="stop-color:#28AAE1"/>
					<stop  offset="0.026" style="stop-color:#26A6DE"/>
					<stop  offset="0.2199" style="stop-color:#1790CD"/>
					<stop  offset="0.4312" style="stop-color:#0C80C1"/>
					<stop  offset="0.6709" style="stop-color:#0677B9"/>
					<stop  offset="1" style="stop-color:#0474B7"/>
				</linearGradient>
				<path style="fill:url(#SVGID_00000068671509219999086710000001887990611170829703_);" d="M86.19,101.55"/>
				
					<linearGradient id="SVGID_00000137104432601723162780000005436174241326377662_" gradientUnits="userSpaceOnUse" x1="-964.8337" y1="-161.5512" x2="-643.9899" y2="-161.5512" gradientTransform="matrix(1 0 0 1 990.4762 335.2381)">
					<stop  offset="0" style="stop-color:#28AAE1"/>
					<stop  offset="0.026" style="stop-color:#26A6DE"/>
					<stop  offset="0.2199" style="stop-color:#1790CD"/>
					<stop  offset="0.4312" style="stop-color:#0C80C1"/>
					<stop  offset="0.6709" style="stop-color:#0677B9"/>
					<stop  offset="1" style="stop-color:#0474B7"/>
				</linearGradient>
				<path style="fill:url(#SVGID_00000137104432601723162780000005436174241326377662_);" d="M86.19,148.85"/>
				
					<linearGradient id="SVGID_00000068654527141987355030000010164473127797370799_" gradientUnits="userSpaceOnUse" x1="-964.8337" y1="-161.5512" x2="-643.9899" y2="-161.5512" gradientTransform="matrix(1 0 0 1 990.4762 335.2381)">
					<stop  offset="0" style="stop-color:#28AAE1"/>
					<stop  offset="0.026" style="stop-color:#26A6DE"/>
					<stop  offset="0.2199" style="stop-color:#1790CD"/>
					<stop  offset="0.4312" style="stop-color:#0C80C1"/>
					<stop  offset="0.6709" style="stop-color:#0677B9"/>
					<stop  offset="1" style="stop-color:#0474B7"/>
				</linearGradient>
				<path style="fill:url(#SVGID_00000068654527141987355030000010164473127797370799_);" d="M42.16,67.94v-20.8
					c0-2.54,2.06-4.61,4.61-4.61h29.9c2.54,0,4.61,2.06,4.61,4.61v20.79c0,3.4,3.54,5.59,6.62,4.14c11.39-5.35,24.1-8.34,37.53-8.34
					c7.04,0,13.88,0.82,20.44,2.38c7.83,1.85,15.25,4.73,22.11,8.52c5.4,2.96,10.45,6.47,15.07,10.45c1.74,1.5,4.29,1.5,6.03,0
					c4.62-3.98,9.67-7.5,15.07-10.45c6.86-3.79,14.28-6.68,22.11-8.52c6.56-1.55,13.4-2.38,20.44-2.38
					c13.43,0,26.14,2.99,37.53,8.34c3.08,1.45,6.62-0.74,6.62-4.14V47.14c0-2.54,2.06-4.61,4.61-4.61h42.93
					c4.47,0,8.09-3.62,8.09-8.09v0c0-4.47-3.62-8.09-8.09-8.09H30.25c-2.54,0-4.61,2.06-4.61,4.61l0,36.98
					c0,4.56,3.7,8.26,8.26,8.26h0C38.46,76.2,42.16,72.5,42.16,67.94z"/>
			</g>
		</g>
	</g>
</g>
</svg>
